PathFileType	4	(X/Y/Z)	s02c0301.trc
DataRate	CameraRate	NumFrames	NumMarkers	Units	OrigDataRate	OrigDataStartFrame	OrigNumFrames
200	200	4	51	mm	200	1500	2000
Frame#	Time	racr			lacr			c7			jug			rlel			rdr			llel			ldr			s2			lic			ric			lasi			rasi			rpsi			lpsi			rgt			lgt			rth1			rth2			rth3			rth4			rlfc			rmfc			rsh1			rsh2			rsh3			rsh4			rlmal			rmmal			rcal			rtoe			rmt5			rmt1			lth1			lth2			lth4			lth3			llfc			lmfc			lsh1			lsh2			lsh3			lsh4			llmal			lmmal			lcal			ltoe			lmt5			SBIKE			LBIKE			RBIKE			
		X1	Y1	Z1	X2	Y2	Z2	X3	Y3	Z3	X4	Y4	Z4	X5	Y5	Z5	X6	Y6	Z6	X7	Y7	Z7	X8	Y8	Z8	X9	Y9	Z9	X10	Y10	Z10	X11	Y11	Z11	X12	Y12	Z12	X13	Y13	Z13	X14	Y14	Z14	X15	Y15	Z15	X16	Y16	Z16	X17	Y17	Z17	X18	Y18	Z18	X19	Y19	Z19	X20	Y20	Z20	X21	Y21	Z21	X22	Y22	Z22	X23	Y23	Z23	X24	Y24	Z24	X25	Y25	Z25	X26	Y26	Z26	X27	Y27	Z27	X28	Y28	Z28	X29	Y29	Z29	X30	Y30	Z30	X31	Y31	Z31	X32	Y32	Z32	X33	Y33	Z33	X34	Y34	Z34	X35	Y35	Z35	X36	Y36	Z36	X37	Y37	Z37	X38	Y38	Z38	X39	Y39	Z39	X40	Y40	Z40	X41	Y41	Z41	X42	Y42	Z42	X43	Y43	Z43	X44	Y44	Z44	X45	Y45	Z45	X46	Y46	Z46	X47	Y47	Z47	X48	Y48	Z48	X49	Y49	Z49	X50	Y50	Z50	X51	Y51	Z51	
1500	7.5000	760.030335	1224.716384	-208.392729	712.318237	1202.629043	-543.786451	737.645501	1257.184228	-382.970541	0.000000	0.000000	-0.000000	667.154635	1022.279276	-50.482243	735.735912	842.984292	-124.059914	535.508885	982.515886	-611.952721	703.700735	858.923256	-534.623912	205.561126	1194.684119	-277.029616	301.039396	1183.680555	-443.606040	354.747515	1182.712231	-159.318143	344.483107	1143.700451	-423.978957	390.775919	1136.279945	-190.494765	253.541428	1247.063705	-236.640616	243.479443	1259.084699	-322.702759	314.454124	1086.087307	-120.249849	243.449026	1107.762880	-466.663310	372.390052	1001.198885	-128.240637	425.338542	930.150143	-134.177421	442.040077	847.416706	-115.848199	451.465723	939.264178	-160.805887	451.818325	705.742883	-145.142341	430.488315	691.835534	-251.304339	386.025661	615.077372	-123.350307	340.583688	538.734368	-138.086460	267.712725	492.852662	-129.071853	349.157704	532.184845	-176.314179	170.990452	406.700505	-129.620945	191.868880	422.682868	-211.210388	94.457995	438.789261	-174.667514	233.012830	188.354102	-198.155844	166.262277	268.633871	-130.258853	187.802591	260.150115	-239.455731	353.402118	1023.229460	-501.838926	428.418911	980.580229	-512.758312	454.178116	1004.450773	-500.740075	471.286571	903.601019	-523.659493	542.928817	824.676139	-513.548502	566.491744	796.920413	-410.431503	509.220915	722.127821	-524.381975	491.779944	640.309730	-501.114525	431.827045	573.568801	-492.958978	514.847355	636.376887	-467.749061	366.948302	491.472344	-468.295318	393.365961	486.571811	-393.673298	295.248659	455.494183	-424.079819	569.316207	370.889161	-455.250207	455.831602	377.671164	-508.179296	-128.563468	870.553487	-315.277445	32.905797	81.994945	-515.306781	32.990735	82.203676	-115.120758	
1501	7.5050	759.070978	1228.134353	-207.071298	713.165366	1201.207555	-542.240092	737.219836	1258.138098	-381.717236	0.000000	0.000000	-0.000000	667.488588	1023.056661	-50.644384	735.837194	843.079755	-123.878536	534.439759	982.470764	-610.452331	703.512138	859.367379	-534.676010	203.755323	1193.705027	-278.152440	301.298133	1180.900545	-444.994807	353.021659	1184.101798	-160.454208	344.336019	1141.293707	-424.174384	389.542984	1137.672606	-190.958180	251.655199	1247.911378	-239.017337	242.330914	1258.440463	-325.242499	314.978771	1087.111601	-120.680880	241.786270	1104.665828	-467.109124	374.862840	1003.623224	-129.788986	429.101160	933.563344	-136.327253	447.749823	851.247562	-118.124335	454.551204	943.211481	-163.465433	459.082742	709.427049	-146.781086	436.085880	695.721606	-252.477006	391.798360	619.038224	-124.869262	343.443100	543.693264	-140.016147	270.756487	499.498525	-129.754733	352.767652	537.086582	-177.537808	172.152683	415.979140	-129.831927	192.831677	431.420864	-211.622007	95.889248	449.878617	-174.959631	229.080591	196.107057	-198.196414	164.322341	278.159567	-130.474430	185.607073	269.148531	-239.521547	350.560959	1018.757907	-502.624246	424.788959	974.833181	-513.722494	451.052387	998.519678	-502.277584	466.147371	897.048729	-524.547798	536.856866	817.206755	-513.460774	562.275930	789.548741	-411.276442	503.839126	714.102909	-524.223085	488.847402	631.871718	-501.631908	430.555759	563.620765	-492.504254	512.668230	628.127784	-468.578778	368.277313	480.482449	-467.950567	395.107510	475.714359	-393.388143	297.437798	444.130924	-423.308705	571.829523	360.896309	-455.906605	458.019073	367.120529	-508.155622	-128.559130	870.577520	-315.035701	32.896532	82.026989	-515.280672	33.004147	82.191731	-115.103078	
1502	7.5100	757.909109	1231.557257	-205.604720	714.149908	1199.699359	-540.614532	736.801566	1258.987296	-380.247912	0.000000	0.000000	-0.000000	667.603038	1023.635617	-50.814023	735.940898	843.191914	-123.596160	533.757893	982.276375	-609.234353	703.412377	859.710039	-534.716834	202.552639	1192.301581	-279.349119	301.648034	1178.132248	-446.203410	351.191932	1185.260383	-161.690361	344.403467	1138.662310	-424.416495	388.235715	1138.752430	-191.362721	248.544742	1248.676820	-241.069079	241.678970	1257.810897	-328.489178	315.588030	1088.041809	-121.219676	240.316300	1101.457420	-467.599890	377.158893	1005.926052	-131.440571	432.287255	936.953447	-138.292391	452.846313	855.143369	-120.274076	457.147446	946.912197	-165.965488	466.084302	713.076892	-147.789423	441.392592	699.370357	-253.456755	397.441122	622.927404	-126.411038	347.409816	548.698400	-141.176665	273.898493	505.998634	-130.559542	356.070048	541.716773	-179.234594	173.473861	425.462596	-130.110585	194.994513	440.308123	-212.273325	97.550100	460.998367	-175.178769	225.915100	204.437808	-198.187541	162.935109	287.998320	-130.730859	184.013705	278.412257	-239.650994	347.908235	1014.082771	-503.315812	421.463936	968.934351	-514.323665	448.145339	992.378368	-503.544959	461.827903	890.455266	-524.063006	531.014425	809.869686	-513.137603	558.088775	782.337276	-411.691246	498.726435	706.575962	-524.393483	485.847990	623.798398	-502.280724	429.023785	554.433848	-492.688198	510.457346	620.256355	-469.924539	369.560213	469.478177	-467.946984	396.485857	464.995146	-393.343530	299.164349	433.013304	-423.295387	573.915800	350.478324	-455.845904	459.996238	356.334093	-508.113673	-128.583155	870.582923	-314.955543	32.909453	82.046259	-515.277415	33.007993	82.213741	-115.102290	
1503	7.5150	756.619729	1234.752805	-204.006057	715.318381	1198.130709	-538.908946	736.464592	1259.820550	-378.620127	0.000000	0.000000	-0.000000	667.573155	1024.186880	-50.995543	736.028372	843.250853	-123.229839	533.450200	982.097293	-608.323738	703.384556	859.971386	-534.759168	201.733082	1191.103653	-281.038181	302.198784	1175.241014	-447.775135	349.188040	1186.028444	-163.068118	344.638330	1135.998094	-424.920806	386.643512	1139.453716	-191.697540	246.536889	1248.656022	-243.703388	240.454967	1256.645799	-331.110966	315.743554	1088.662925	-122.093499	239.135596	1098.113505	-468.175102	378.844310	1008.236136	-132.696626	435.228906	939.958492	-139.971005	457.171574	858.647011	-122.036019	459.159012	950.368521	-168.362102	472.770209	716.567285	-148.800725	446.587994	702.782391	-254.473818	402.932175	626.713602	-128.545828	351.318441	553.721987	-142.432329	276.936948	512.596820	-131.462417	359.593752	546.597178	-180.454800	174.824405	435.156219	-130.417771	196.012891	449.714187	-212.339769	99.315337	472.098632	-175.385781	223.482192	213.366242	-198.253832	161.976297	297.994876	-130.897349	182.976143	287.982768	-239.729210	345.601011	1009.345756	-503.950500	418.308713	962.805881	-514.739953	445.429432	986.065367	-504.527065	457.502352	883.745715	-523.606013	525.294683	802.673356	-512.592889	554.711061	775.778738	-411.691815	493.856614	699.456845	-524.738628	482.845132	616.102076	-503.112093	427.261323	545.860743	-493.110676	508.179012	612.462306	-471.250940	370.540676	458.680894	-468.511646	397.471041	454.390313	-393.507487	300.669418	422.666716	-424.394292	575.451380	339.623561	-455.282043	461.682425	345.597005	-508.047272	-128.590867	870.575285	-314.914817	32.926096	82.083833	-515.258298	33.004525	82.234217	-115.110260	
